<svg width="46" height="46" viewBox="0 0 46 46" fill="none" xmlns="http://www.w3.org/2000/svg">
<path d="M42.2373 14.3735L37.9495 11.8081L36.9834 7.80905C36.5544 6.03545 34.9118 4.85306 33.1105 4.99481L28.2042 5.37453L25.3937 2.88603C24.0094 1.70486 21.9955 1.70486 20.6064 2.8848L17.7958 5.37445L12.8895 4.99472C11.1087 4.86979 9.44444 6.03652 9.06111 7.66353C8.98178 7.91011 7.54894 12.364 7.64197 12.0747L3.76337 14.3722C2.20969 15.3263 1.58724 17.2417 2.28295 18.9264L3.95679 22.9831L2.28418 27.0386C1.58724 28.7246 2.21084 30.6388 3.76337 31.5916L8.04687 34.1391L9.01656 38.1562C9.44313 39.9285 11.0786 41.105 12.8894 40.9704L17.7428 40.5955L20.6063 43.1132C21.2997 43.7044 22.1493 44 23 44C23.8495 44 24.7004 43.7044 25.3937 43.1132L28.2572 40.5955L33.1105 40.9703C34.9443 41.1157 36.5568 39.9297 36.9834 38.1561L37.9495 34.1571L42.2373 31.5916C43.7886 30.6388 44.4111 28.7246 43.7165 27.0386L42.0427 22.9832L43.7177 18.9253C44.4123 17.2418 43.7898 15.3264 42.2373 14.3735Z" stroke="white" stroke-width="2.8"/>
<path d="M31.5604 20.5605L22.5604 29.5605C22.2674 29.8535 21.8836 30 21.4999 30C21.1162 30 20.7323 29.8535 20.4394 29.5605L14.4394 23.5605C13.8535 22.9746 13.8535 22.0253 14.4394 21.4394C15.0253 20.8535 15.9746 20.8535 16.5605 21.4394L21.4999 26.3789L29.4394 18.4394C30.0253 17.8535 30.9746 17.8535 31.5605 18.4394C32.1464 19.0253 32.1464 19.9746 31.5604 20.5605Z" fill="white"/>
</svg>
