<svg width="48" height="36" viewBox="0 0 48 36" fill="none" xmlns="http://www.w3.org/2000/svg">
<path fill-rule="evenodd" clip-rule="evenodd" d="M12.1869 18.2728C12.1869 8.63128 20.0208 0.818237 29.6843 0.818237C39.3479 0.818237 47.1818 8.63128 47.1818 18.2728C47.1818 27.9143 39.3479 35.7273 29.6843 35.7273C20.0208 35.7273 12.1869 27.9143 12.1869 18.2728ZM44.4545 18.2728C44.4545 10.1391 37.8433 3.54551 29.6843 3.54551C21.5254 3.54551 14.9142 10.1391 14.9142 18.2728C14.9142 26.4064 21.5254 33.0001 29.6843 33.0001C37.8433 33.0001 44.4545 26.4064 44.4545 18.2728ZM11.5648 27.8015C12.318 27.8015 12.9285 28.412 12.9285 29.1651C12.9285 29.8881 12.3658 30.4797 11.6545 30.5258L11.5648 30.5287H9.08272C8.3296 30.5287 7.71908 29.9182 7.71908 29.1651C7.71908 28.4421 8.28174 27.8505 8.99306 27.8044L9.08272 27.8015H11.5648ZM9.4535 17.7777C9.4535 17.0246 8.84298 16.414 8.08987 16.414H1.63634L1.54668 16.4169C0.835361 16.4631 0.272705 17.0547 0.272705 17.7777C0.272705 18.5308 0.883226 19.1413 1.63634 19.1413H8.08987L8.17952 19.1384C8.89085 19.0922 9.4535 18.5007 9.4535 17.7777ZM11.5648 6.01684C12.318 6.01684 12.9285 6.62736 12.9285 7.38048C12.9285 8.10347 12.3658 8.69504 11.6545 8.74121L11.5648 8.74411H9.08272C8.3296 8.74411 7.71908 8.13359 7.71908 7.38048C7.71908 6.65748 8.28174 6.06591 8.99306 6.01974L9.08272 6.01684H11.5648ZM31.2933 7.04326C31.2471 6.33194 30.6556 5.76929 29.9326 5.76929C29.1794 5.76929 28.5689 6.37981 28.5689 7.13292V18.0252L28.5718 18.1149C28.618 18.8262 29.2096 19.3889 29.9326 19.3889H35.8897L35.9793 19.386C36.6906 19.3398 37.2533 18.7482 37.2533 18.0252L37.2504 17.9356C37.2042 17.2242 36.6127 16.6616 35.8897 16.6616L31.296 16.6615L31.2962 7.13292L31.2933 7.04326Z" fill="white"/>
</svg>
