<svg width="36" height="37" viewBox="0 0 36 37" fill="none" xmlns="http://www.w3.org/2000/svg">
<path fill-rule="evenodd" clip-rule="evenodd" d="M18.2727 0C23.536 0 27.8182 4.42056 27.8182 9.85441C27.8182 15.2481 23.536 19.6364 18.2727 19.6364C13.0095 19.6364 8.72727 15.2481 8.72727 9.85441C8.72727 4.42056 13.0095 0 18.2727 0ZM19.3333 17.3845C22.9264 16.8555 25.697 13.6806 25.697 9.85441C25.697 5.99173 22.9264 2.78655 19.3333 2.25245V4.92919C20.5619 5.38121 21.4432 6.5864 21.4432 7.99907C21.4432 8.59912 20.9682 9.08595 20.3826 9.08595C19.7968 9.08595 19.322 8.59912 19.322 7.99907C19.322 7.39958 18.8461 6.91218 18.2614 6.91218C17.6764 6.91218 17.2008 7.39958 17.2008 7.99907C17.2008 8.59827 17.6764 9.08595 18.2614 9.08595C20.0158 9.08595 21.4432 10.5487 21.4432 12.3466C21.4432 13.759 20.5619 14.9642 19.3333 15.4162V17.3845ZM10.8485 9.85441C10.8485 5.99173 13.619 2.78655 17.2121 2.25245V4.92126C15.9717 5.36677 15.0796 6.57763 15.0796 7.99907C15.0796 9.79695 16.507 11.2594 18.2614 11.2594C18.8461 11.2594 19.322 11.7471 19.322 12.3463C19.322 12.9458 18.8461 13.4332 18.2614 13.4332C17.6764 13.4332 17.2008 12.9458 17.2008 12.3463C17.2008 11.7463 16.7257 11.2594 16.1402 11.2594C15.5544 11.2594 15.0796 11.7463 15.0796 12.3463C15.0796 13.7678 15.9717 14.9786 17.2121 15.4241V17.3845C13.619 16.8555 10.8485 13.6806 10.8485 9.85441ZM1.05469 34.3638H7.36303L19.9303 36.5301C20.1992 36.5763 20.4837 36.5189 20.7229 36.3479L20.7265 36.3455C20.7289 36.3439 20.7313 36.3423 20.7337 36.3405L35.5696 25.4334C36.0338 25.0923 36.1387 24.4414 35.805 23.9714C34.1653 21.6619 30.9007 21.0555 28.5276 22.6201L24.7673 25.1017C24.1908 24.3183 23.2633 23.8089 22.2187 23.8089H18.7959C18.3682 23.8089 18.1265 23.5817 17.8807 23.3507L17.8807 23.3506C17.792 23.2672 17.7027 23.1833 17.6039 23.1094C14.8233 20.6605 10.6298 20.6605 7.84918 23.1094L7.05514 23.8089H1.05469C0.472137 23.8089 0 24.2814 0 24.8644V33.3083C0 33.8913 0.472137 34.3638 1.05469 34.3638ZM2.10937 25.92H7.45312C7.70965 25.92 7.95739 25.8262 8.14993 25.6566L9.24279 24.6943C11.2288 22.945 14.2243 22.945 16.2103 24.6943C16.2613 24.7287 16.3287 24.7915 16.4143 24.8711L16.4143 24.8711C16.7968 25.2271 17.5412 25.92 18.7959 25.92H22.2187C22.8002 25.92 23.2734 26.3933 23.2734 26.9755C23.2734 27.5574 22.8002 28.0307 22.2187 28.0307H13.7812C13.1987 28.0307 12.7266 28.5035 12.7266 29.0862C12.7266 29.6693 13.1987 30.1418 13.7812 30.1418H22.2187C23.8771 30.1418 25.2405 28.8581 25.3715 27.2317L29.6886 24.3826C30.8208 23.6363 32.2872 23.7053 33.3418 24.4519L19.8462 34.3735C14.6343 33.4773 11.6381 32.959 9.90705 32.6596C7.60336 32.2611 7.5405 32.2502 7.47805 32.2522C7.47087 32.2524 7.4637 32.2528 7.45312 32.2528H2.10937V25.92Z" fill="white"/>
</svg>
