<svg width="36" height="22" viewBox="0 0 36 22" fill="none" xmlns="http://www.w3.org/2000/svg">
<path fill-rule="evenodd" clip-rule="evenodd" d="M0 0V22H36V0H0ZM7.2 18.3333C7.2 16.3167 5.58 14.6667 3.6 14.6667V7.33333C5.58 7.33333 7.2 5.68333 7.2 3.66667H28.8C28.8 5.68333 30.42 7.33333 32.4 7.33333V14.6667C30.42 14.6667 28.8 16.3167 28.8 18.3333H7.2ZM18 16.5C21.0256 16.5 23.4783 14.0376 23.4783 11C23.4783 7.96243 21.0256 5.5 18 5.5C14.9744 5.5 12.5217 7.96243 12.5217 11C12.5217 14.0376 14.9744 16.5 18 16.5ZM10.9565 11.3929C10.9565 12.4777 10.0806 13.3571 9 13.3571C7.91944 13.3571 7.04348 12.4777 7.04348 11.3929C7.04348 10.308 7.91944 9.42857 9 9.42857C10.0806 9.42857 10.9565 10.308 10.9565 11.3929ZM27 13.3571C28.0806 13.3571 28.9565 12.4777 28.9565 11.3929C28.9565 10.308 28.0806 9.42857 27 9.42857C25.9194 9.42857 25.0435 10.308 25.0435 11.3929C25.0435 12.4777 25.9194 13.3571 27 13.3571Z" fill="white"/>
</svg>
