<svg width="34" height="34" viewBox="0 0 34 34" fill="none" xmlns="http://www.w3.org/2000/svg">
<path fill-rule="evenodd" clip-rule="evenodd" d="M27.4033 10.0589C26.212 5.42592 21.9995 1.99219 17 1.99219C12.0005 1.99219 7.78799 5.42592 6.5968 10.0589C6.19517 9.85781 5.74268 9.74399 5.26382 9.74399H4.6228C5.97092 4.16048 11.0084 0 17 0C22.9916 0 28.0291 4.16048 29.3773 9.74399H28.7362C28.2574 9.74399 27.8048 9.85781 27.4033 10.0589ZM23.9351 23.2599C24.4852 23.2599 24.9312 22.8139 24.9312 22.2638V20.0591H25.002C25.5521 20.0591 25.998 19.6132 25.998 19.063C25.998 18.5129 25.5521 18.0669 25.002 18.0669H24.9312V12.6615C24.9312 12.2587 24.6885 11.8954 24.3163 11.7412C23.9442 11.587 23.5158 11.6722 23.2308 11.957L22.659 12.5286L22.6568 12.5308L22.6433 12.5444C21.6696 13.5177 19.7224 15.4641 18.6463 16.5394C17.9841 17.2053 17.6043 18.1251 17.6043 19.063C17.6043 19.6132 18.0503 20.0591 18.6004 20.0591H22.939V22.2638C22.939 22.8139 23.3849 23.2599 23.9351 23.2599ZM19.9488 18.0669C19.9826 18.025 20.0186 17.9847 20.0567 17.9464C20.8028 17.2009 21.9696 16.0347 22.9389 15.0657V18.0669H19.9488ZM0.996094 11.7362H5.26382C5.81393 11.7362 6.25992 12.1822 6.25992 12.7323V23.4016C6.25992 23.9517 5.81393 24.3977 5.26382 24.3977H0.996094C0.445984 24.3977 0 23.9517 0 23.4016V12.7323C0 12.1822 0.445984 11.7362 0.996094 11.7362ZM15.8622 22.2638C15.8622 21.7137 15.4162 21.2677 14.8661 21.2677H10.8799C10.9137 21.2258 10.9497 21.1855 10.9878 21.1472C12.4602 19.6758 15.5703 16.5667 15.5703 16.5667C15.7572 16.3799 15.8623 16.1265 15.8623 15.8623V15.3288C15.8623 13.3088 14.2189 11.6654 12.1989 11.6654C10.1597 11.6654 8.53546 13.3172 8.53546 15.3277V15.3288C8.53546 15.8789 8.98145 16.3243 9.53155 16.3243C10.0817 16.3243 10.5276 15.8778 10.5276 15.3277C10.5276 14.4139 11.2634 13.6576 12.1989 13.6576C13.1204 13.6576 13.8701 14.4073 13.8701 15.3288V15.4495C13.0624 16.257 10.7779 18.5406 9.57744 19.7403C8.91517 20.4061 8.53546 21.326 8.53546 22.2638C8.53546 22.8139 8.98145 23.2599 9.53155 23.2599H14.8662C15.4162 23.2599 15.8622 22.8139 15.8622 22.2638ZM27.2087 25.9686C26.213 28.2641 23.925 29.874 21.2677 29.874H19.9666C19.5495 28.6352 18.3777 27.7401 17.0001 27.7401C15.2742 27.7401 13.8701 29.1442 13.8701 30.8701C13.8701 32.5959 15.2742 34 17 34C18.3776 34 19.5494 33.105 19.9665 31.8662H21.2677C24.8836 31.8662 27.9766 29.5869 29.187 26.3898H28.7362C28.1784 26.3898 27.656 26.2358 27.2087 25.9686ZM28.7362 11.7362H33.0039C33.554 11.7362 34 12.1822 34 12.7323V23.4016C34 23.9517 33.554 24.3977 33.0039 24.3977H28.7362C28.1861 24.3977 27.7401 23.9517 27.7401 23.4016V12.7323C27.7401 12.1822 28.1861 11.7362 28.7362 11.7362Z" fill="white"/>
</svg>
