<svg width="44" height="36" viewBox="0 0 44 36" fill="none" xmlns="http://www.w3.org/2000/svg">
<path fill-rule="evenodd" clip-rule="evenodd" d="M17.1597 1.23535C16.8216 0.642675 16.1899 0.272705 15.5017 0.272705H6.45798L6.35323 0.27553C5.34759 0.329909 4.54889 1.16258 4.54889 2.1818L4.54877 5.9258L4.43764 5.95569C2.13911 6.60066 0.45459 8.71597 0.45459 11.225C0.45459 14.2454 2.89712 16.6964 5.91253 16.6964C7.7484 16.6964 9.43173 15.7787 10.4387 14.2826L8.17614 12.7598L8.0978 12.8703C7.58621 13.5558 6.78454 13.9691 5.91253 13.9691C4.40546 13.9691 3.18186 12.7413 3.18186 11.225C3.18186 9.70815 4.40506 8.48095 5.91253 8.48095H7.27616L7.27604 2.99998H14.9931L23.078 19.3636H3.45459L3.34984 19.3664C2.3442 19.4208 1.5455 20.2535 1.5455 21.2727V30.5454L1.54832 30.6502C1.6027 31.6558 2.43537 32.4545 3.45459 32.4545H8.37016C9.04398 34.3612 10.8624 35.7272 12.9995 35.7272C15.1373 35.7272 16.956 34.3613 17.6299 32.4545H29.0974C29.7713 34.3613 31.5901 35.7272 33.7278 35.7272C35.8655 35.7272 37.6837 34.3614 38.3573 32.4545H41.6364L41.7412 32.4517C42.7468 32.3973 43.5455 31.5646 43.5455 30.5454V18.2139L43.542 18.0984C43.5141 17.638 43.3202 17.2018 42.9942 16.8719L34.1565 7.93066L34.0715 7.84976C33.7225 7.53761 33.2697 7.36361 32.7988 7.36361H25.8182L25.7135 7.36644C24.7078 7.42082 23.9091 8.25349 23.9091 9.27271V14.8887L17.2133 1.33616L17.1597 1.23535ZM4.27277 22.0909H23.9091V29.7273H17.7874C17.2911 27.5412 15.3358 25.9091 12.9995 25.9091C10.664 25.9091 8.709 27.5413 8.21272 29.7273H4.27277V22.0909ZM38.5147 29.7272H40.8182V18.5498L32.457 10.0909H26.6364V29.7273H28.94C29.4363 27.5412 31.3916 25.9091 33.7278 25.9091C36.064 25.9091 38.0186 27.5411 38.5147 29.7272ZM12.9995 28.6363C14.2046 28.6363 15.1819 29.6136 15.1819 30.8187C15.1819 32.0234 14.205 33 12.9995 33C11.795 33 10.8182 32.0234 10.8182 30.8187C10.8182 29.6137 11.7954 28.6363 12.9995 28.6363ZM33.7278 28.6363C34.9326 28.6363 35.9091 29.6133 35.9091 30.8187C35.9091 32.0238 34.9329 33 33.7278 33C32.5224 33 31.5455 32.0234 31.5455 30.8187C31.5455 29.6136 32.5227 28.6363 33.7278 28.6363Z" fill="white"/>
</svg>
