<svg width="23" height="23" viewBox="0 0 23 23" fill="none" xmlns="http://www.w3.org/2000/svg">
<path id="empty" d="M11.9159 18.6298L11.4999 18.4395L11.0839 18.6298L5.19427 21.3238C5.10531 21.3645 4.99984 21.3256 4.95886 21.2359C4.94533 21.2063 4.94013 21.1735 4.94386 21.1411L5.68491 14.7046L5.73718 14.2506L5.42807 13.9139L1.04702 9.14248C0.980352 9.06986 0.985187 8.95679 1.0577 8.89015C1.08159 8.86819 1.11098 8.85323 1.14267 8.84682L7.4903 7.56294L7.93851 7.47229L8.16311 7.07397L11.3451 1.43097C11.3935 1.34517 11.5018 1.31522 11.5871 1.36333C11.6153 1.37926 11.6387 1.40263 11.6547 1.43097L14.8367 7.07397L15.0613 7.47229L15.5095 7.56294L21.8571 8.84682C21.953 8.86622 22.0158 8.96008 21.9962 9.05708C21.9898 9.08903 21.9747 9.11855 21.9528 9.14248L17.5717 13.9139L17.2626 14.2506L17.3149 14.7046L18.0559 21.1411C18.0672 21.2394 17.9968 21.3276 17.8996 21.3388C17.8675 21.3425 17.8349 21.3373 17.8055 21.3238L11.9159 18.6298Z" stroke="#FAB05B" stroke-width="2"/>
</svg>
