<svg width="64" height="26" viewBox="0 0 64 26" fill="none" xmlns="http://www.w3.org/2000/svg">
<path fill-rule="evenodd" clip-rule="evenodd" d="M16.4687 18.7927C16.4687 16.1349 14.3118 13.9805 11.6521 13.9805C8.99187 13.9805 6.83545 16.1349 6.83545 18.7927C6.83545 21.4504 8.99187 23.6049 11.6521 23.6049C14.3118 23.6049 16.4687 21.4504 16.4687 18.7927Z" stroke="#030303" stroke-width="2.8"/>
<path fill-rule="evenodd" clip-rule="evenodd" d="M53.4135 18.7927C53.4135 16.1349 51.2566 13.9805 48.5969 13.9805C45.9367 13.9805 43.7803 16.1349 43.7803 18.7927C43.7803 21.4504 45.9367 23.6049 48.5969 23.6049C51.2566 23.6049 53.4135 21.4504 53.4135 18.7927Z" stroke="#030303" stroke-width="2.8"/>
<path d="M16.3657 19.784H43.7802" stroke="#030303" stroke-width="2.8"/>
<path d="M60.4195 8.28837H13.9512" stroke="#030303" stroke-width="2.8"/>
<path d="M53.4136 19.7839H60.0517C62.0933 19.7839 63.7486 18.1301 63.7486 16.0903V11.884C63.7486 9.98636 62.3094 8.39773 60.4195 8.20882L55.9567 7.89623C54.3117 7.78063 52.7563 7.10371 51.5516 5.97836L47.6034 2.28791C46.3267 1.0942 44.6587 0.406932 42.9111 0.353858L31.5099 0.0057279C28.7462 -0.078381 26.0343 0.765857 23.8076 2.40306L19.9783 5.21913C18.2518 6.48886 16.0571 7.88858 13.9511 8.28798L10.6134 5.51464C10.0588 7.20896 7.13521 7.55979 4.52905 7.37223C5.49922 10.6021 4.44442 13.451 1 14.8098C1 14.8098 3.09249 18.1791 2.45187 19.7839H6.83494" stroke="#030303" stroke-width="2.8"/>
<path d="M16.3657 19.784H43.7802" stroke="#030303" stroke-width="2.8"/>
</svg>
