<svg width="65" height="26" viewBox="0 0 65 26" fill="none" xmlns="http://www.w3.org/2000/svg">
<path fill-rule="evenodd" clip-rule="evenodd" d="M17.6679 18.7927C17.6679 16.1349 15.511 13.9805 12.8513 13.9805C10.1911 13.9805 8.03467 16.1349 8.03467 18.7927C8.03467 21.4504 10.1911 23.6049 12.8513 23.6049C15.511 23.6049 17.6679 21.4504 17.6679 18.7927Z" stroke="#030303" stroke-width="2.8"/>
<path fill-rule="evenodd" clip-rule="evenodd" d="M54.6127 18.7927C54.6127 16.1349 52.4558 13.9805 49.7961 13.9805C47.1359 13.9805 44.9795 16.1349 44.9795 18.7927C44.9795 21.4504 47.1359 23.6049 49.7961 23.6049C52.4558 23.6049 54.6127 21.4504 54.6127 18.7927Z" stroke="#030303" stroke-width="2.8"/>
<path d="M17.5649 19.784H44.9794" stroke="#030303" stroke-width="2.8"/>
<path d="M54.6129 19.7839H61.251C63.2926 19.7839 64.948 18.1301 64.948 16.0903V11.884C64.948 9.98636 63.5087 8.39773 61.6188 8.20882L57.1561 7.89623C55.5111 7.78063 53.9556 7.10371 52.7509 5.97836L48.8027 2.28791C47.526 1.0942 45.858 0.406932 44.1104 0.353858L32.7093 0.0057279C29.9456 -0.078381 27.2336 0.765857 25.0074 2.40306L21.1776 5.21958C19.4511 6.48886 17.4622 7.35559 15.3557 7.75544L3.13484 9.98726C1.47363 10.2904 0.237405 11.6919 0.145566 13.3764L0.00555622 15.937C-0.108792 18.0271 1.55647 19.7839 3.65121 19.7839H8.03473" stroke="#030303" stroke-width="2.8"/>
<path d="M61.619 8.28837H12.8516" stroke="#030303" stroke-width="2.8"/>
</svg>
