<svg width="69" height="22" viewBox="0 0 69 22" fill="none" xmlns="http://www.w3.org/2000/svg">
<path fill-rule="evenodd" clip-rule="evenodd" d="M9.19193 19.7839H5.65117C3.55643 19.7839 1.89162 18.027 2.00552 15.9373L2.14552 13.3767C2.23781 11.6923 3.47359 10.2908 5.1348 9.9872L17.3562 7.75584C19.4622 7.35598 21.4516 6.48926 23.178 5.21953L27.0074 2.403C29.234 0.765801 31.9455 -0.077987 34.7092 0.00567213L46.1104 0.353802C47.858 0.407326 49.526 1.09459 50.8027 2.28831L54.7513 5.97831C55.9556 7.10411 57.511 7.78103 59.156 7.89617L63.6188 8.20922C65.5087 8.39812 66.9479 9.98675 66.9479 11.8844V16.0907C66.9479 18.1305 65.293 19.7839 63.2514 19.7839H57.4538L57.4556 19.635C57.4556 16.5122 54.922 13.9808 51.7963 13.9808C48.6706 13.9808 46.1369 16.5122 46.1369 19.635L46.1387 19.7839H20.5106V19.635C20.5106 16.5122 17.977 13.9808 14.8513 13.9808C11.7256 13.9808 9.19193 16.5122 9.19193 19.635V19.7839Z" stroke="#030303" stroke-width="2.8"/>
<path d="M63.619 8.28788H14.8516" stroke="#030303" stroke-width="2.8"/>
</svg>
