<svg width="77" height="36" viewBox="0 0 77 36" fill="none" xmlns="http://www.w3.org/2000/svg">
<path fill-rule="evenodd" clip-rule="evenodd" d="M28.7409 29.239C28.7409 26.5812 26.584 24.4268 23.9243 24.4268C21.2641 24.4268 19.1077 26.5812 19.1077 29.239C19.1077 31.8967 21.2641 34.0512 23.9243 34.0512C26.584 34.0512 28.7409 31.8967 28.7409 29.239Z" stroke="#030303" stroke-width="2.8"/>
<path fill-rule="evenodd" clip-rule="evenodd" d="M65.6859 29.239C65.6859 26.5812 63.5291 24.4268 60.8693 24.4268C58.2092 24.4268 56.0527 26.5812 56.0527 29.239C56.0527 31.8967 58.2092 34.0512 60.8693 34.0512C63.5291 34.0512 65.6859 31.8967 65.6859 29.239Z" stroke="#030303" stroke-width="2.8"/>
<path d="M28.6379 30.2298H56.0524" stroke="#030303" stroke-width="2.8"/>
<path d="M65.6859 30.2298H72.324C74.3656 30.2298 76.021 28.5764 76.021 26.5367V22.3299C76.021 20.4323 74.5817 18.8436 72.6918 18.6547L68.2291 18.3421C66.5841 18.227 65.0286 17.5501 63.8239 16.4243L59.8757 12.7338C58.599 11.5405 56.931 10.8528 55.1834 10.7998L43.7823 10.4521C41.0186 10.3675 38.3066 11.2118 36.0804 12.849L32.2506 15.6655C30.5241 16.9352 28.5352 17.8019 26.4287 18.2013L14.2078 20.4332C12.5466 20.7363 11.3104 22.1383 11.2186 23.8227L11.0786 26.3833C10.9642 28.473 12.6295 30.2298 14.7242 30.2298H19.1077" stroke="#030303" stroke-width="2.8"/>
<path d="M72.6918 18.7342H23.9243" stroke="#030303" stroke-width="2.8"/>
<path d="M3.63831 20.2631C0.908798 18.2318 0.137619 14.4784 0.137619 14.4784C-0.249996 12.5187 0.189391 10.4862 1.35224 8.86157C2.38813 7.41418 5.08703 4.64263 3.67568 0C10.1143 2.6654 13.7087 5.89302 9.14416 12.7C10.0923 12.5129 13.8523 11.7703 15.7597 8.96233C16.1604 9.64419 16.6435 12.3199 16.1662 13.7682" stroke="#030303" stroke-width="2.8"/>
</svg>
