<svg width="70" height="25" viewBox="0 0 70 25" fill="none" xmlns="http://www.w3.org/2000/svg">
<path fill-rule="evenodd" clip-rule="evenodd" d="M19.3834 17.7139C19.6153 15.0661 17.6547 12.7322 15.0049 12.5005C12.3546 12.2689 10.0185 14.2272 9.78669 16.8751C9.55484 19.5225 11.515 21.8569 14.1653 22.0885C16.8151 22.3201 19.1516 20.3618 19.3834 17.7139Z" stroke="#030303" stroke-width="2.8"/>
<path d="M42.7349 8.62152L15.501 6.82959" stroke="#030303" stroke-width="2.8"/>
<path d="M19.1945 18.6921L31.984 19.8098L30.7185 12.9502L42.735 8.62153L39.3838 0.0644531L36.0659 0.0711998C34.131 -0.00436328 30.4853 0.588447 28.1245 2.0255L24.0638 4.49794C22.2333 5.61249 20.1759 6.30246 18.0429 6.51745L5.67343 7.67609C3.99241 7.83351 2.63868 9.12258 2.40008 10.7926L2.03723 13.3312C1.741 15.4033 3.24689 17.2982 5.33353 17.4809L9.69994 17.8623" stroke="#030303" stroke-width="2.8"/>
<path fill-rule="evenodd" clip-rule="evenodd" d="M57.548 17.4654C57.3161 14.818 54.9801 12.8596 52.3298 13.0908C49.6795 13.3224 47.7194 15.6568 47.9512 18.3042C48.1831 20.9521 50.5196 22.9104 53.1694 22.6792C55.8197 22.4471 57.7798 20.1132 57.548 17.4654Z" stroke="#030303" stroke-width="2.8"/>
<path d="M63.6111 6.39111L42.5322 8.23386" stroke="#030303" stroke-width="2.8"/>
<path d="M39.3838 0.0642668L45.4771 0.0116425C47.2225 -0.0877589 48.9441 0.451977 50.3198 1.52965L54.5755 4.86207C55.8734 5.87858 57.4819 6.41786 59.131 6.38953L63.6041 6.31217C65.5035 6.33556 67.0755 7.79329 67.2408 9.68327L67.6081 13.8739C67.7859 15.906 66.2814 17.697 64.2474 17.8751L57.6346 18.4531" stroke="#030303" stroke-width="2.8"/>
<path d="M42.5319 8.23389L36.1631 14.937L41.1778 19.8917L48.0373 19.2922" stroke="#030303" stroke-width="2.8"/>
</svg>
