<svg width="78" height="42" viewBox="0 0 78 42" fill="none" xmlns="http://www.w3.org/2000/svg">
<path d="M4.56359 22.7049L5.9736 14.4897L0 8.67267L8.25562 7.474L11.9476 0L15.6397 7.474L23.8948 8.67267" stroke="#030303" stroke-width="2.8"/>
<path fill-rule="evenodd" clip-rule="evenodd" d="M30.0346 21.2648C30.0346 23.9221 27.8777 26.077 25.218 26.077C22.5578 26.077 20.4014 23.9221 20.4014 21.2648C20.4014 18.607 22.5578 16.4521 25.218 16.4521C27.8777 16.4521 30.0346 18.607 30.0346 21.2648Z" stroke="#030303" stroke-width="2.8"/>
<path fill-rule="evenodd" clip-rule="evenodd" d="M66.9799 21.2648C66.9799 23.9221 64.823 26.077 62.1633 26.077C59.5031 26.077 57.3467 23.9221 57.3467 21.2648C57.3467 18.607 59.5031 16.4521 62.1633 16.4521C64.823 16.4521 66.9799 18.607 66.9799 21.2648Z" stroke="#030303" stroke-width="2.8"/>
<path d="M29.9321 20.2732H57.3466" stroke="#030303" stroke-width="2.8"/>
<path d="M73.9859 31.7688H27.5176" stroke="#030303" stroke-width="2.8"/>
<path d="M66.98 20.2734H73.6181C75.6597 20.2734 77.315 21.9273 77.315 23.967V28.1734C77.315 30.071 75.8758 31.6596 73.9859 31.8485L69.5231 32.1611C67.8781 32.2767 66.3227 32.9536 65.118 34.079L61.1698 37.7694C59.8931 38.9627 58.2251 39.6504 56.4775 39.7035L45.0764 40.0516C42.3126 40.1357 39.6007 39.2915 37.374 37.6543L33.5447 34.8378C31.8182 33.5685 29.6235 32.1688 27.5175 31.7694L24.1798 34.5427C23.6252 32.8479 20.7016 32.4976 18.0955 32.6851C19.0656 29.4553 18.0108 26.6063 14.5664 25.2476C14.5664 25.2476 16.6589 21.8783 16.0183 20.2734H20.4018" stroke="#030303" stroke-width="2.8"/>
<path d="M29.9321 20.2732H57.3466" stroke="#030303" stroke-width="2.8"/>
</svg>
