<svg width="65" height="22" viewBox="0 0 65 22" fill="none" xmlns="http://www.w3.org/2000/svg">
<path fill-rule="evenodd" clip-rule="evenodd" d="M7.19193 19.7839H3.65117C1.55643 19.7839 -0.108383 18.0271 0.00551516 15.9374L0.145525 13.3768C0.237814 11.6924 1.47359 10.2909 3.1348 9.98726L15.3562 7.75589C17.4622 7.35604 19.4516 6.48931 21.178 5.21958L25.0074 2.40306C27.234 0.765857 29.9455 -0.078381 32.7092 0.0057279L44.1104 0.353858C45.858 0.406932 47.526 1.09465 48.8027 2.28836L52.7513 5.97836C53.9556 7.10416 55.511 7.78108 57.156 7.89623L61.6188 8.20882C63.5087 8.39773 64.9479 9.98636 64.9479 11.884V16.0903C64.9479 18.1301 63.293 19.7839 61.2514 19.7839H55.4538L55.4556 19.6346C55.4556 16.5122 52.922 13.9809 49.7963 13.9809C46.6706 13.9809 44.1369 16.5122 44.1369 19.6346L44.1387 19.7839H18.5106V19.6346C18.5106 16.5122 15.977 13.9809 12.8513 13.9809C9.72561 13.9809 7.19193 16.5122 7.19193 19.6346V19.7839Z" stroke="#030303" stroke-width="2.8"/>
<path d="M61.6189 8.28837H35.981" stroke="#030303" stroke-width="2.8"/>
<path d="M35.981 19.7841V0.000488281" stroke="#030303" stroke-width="2.8"/>
<path d="M12.8513 13.9805V8.28809" stroke="#030303" stroke-width="2.8"/>
<path fill-rule="evenodd" clip-rule="evenodd" d="M12.8379 8.21512L15.3558 7.75589C17.4618 7.35604 19.4512 6.48931 21.1777 5.21958L25.0075 2.40306C27.2337 0.765857 29.9456 -0.078381 32.7094 0.0057279L35.9777 0.105579H35.9809V19.7839H18.5108V19.6346C18.5108 16.5118 15.9766 13.9804 12.8514 13.9804V8.28798L12.8379 8.21512Z" fill="#030303"/>
</svg>
