<svg width="83" height="32" viewBox="0 0 83 32" fill="none" xmlns="http://www.w3.org/2000/svg">
<path fill-rule="evenodd" clip-rule="evenodd" d="M34.0348 25.4743C34.0348 22.8166 31.8779 20.6621 29.2182 20.6621C26.558 20.6621 24.4016 22.8166 24.4016 25.4743C24.4016 28.1321 26.558 30.2865 29.2182 30.2865C31.8779 30.2865 34.0348 28.1321 34.0348 25.4743Z" stroke="#030303" stroke-width="2.8"/>
<path fill-rule="evenodd" clip-rule="evenodd" d="M70.9799 25.4743C70.9799 22.8166 68.823 20.6621 66.1633 20.6621C63.5031 20.6621 61.3467 22.8166 61.3467 25.4743C61.3467 28.1321 63.5031 30.2865 66.1633 30.2865C68.823 30.2865 70.9799 28.1321 70.9799 25.4743Z" stroke="#030303" stroke-width="2.8"/>
<path d="M33.9319 26.4656H61.3463" stroke="#030303" stroke-width="2.8"/>
<path d="M70.9799 26.4656H77.6179C79.6596 26.4656 81.3149 24.8117 81.3149 22.772V18.5656C81.3149 16.668 79.8757 15.0794 77.9857 14.8905L73.523 14.5779C71.878 14.4627 70.3226 13.7854 69.1179 12.6596L65.1697 8.96956C63.8929 7.77629 62.225 7.08858 60.4773 7.03505L49.0762 6.68737C46.3125 6.60326 43.6005 7.44705 41.3744 9.0847L37.5446 11.9012C35.8181 13.171 33.8291 14.0372 31.7227 14.4371L19.5018 16.6689C17.8406 16.9721 16.6043 18.3736 16.5125 20.058L16.3725 22.619C16.2582 24.7083 17.9234 26.4656 20.0182 26.4656H24.4017" stroke="#030303" stroke-width="2.8"/>
<path d="M77.9857 14.9695H29.2183" stroke="#030303" stroke-width="2.8"/>
<path d="M8.56359 22.7049L9.9736 14.4901L4 8.67267L12.2556 7.474L15.9476 0L19.6397 7.474L27.8948 8.67267" stroke="#030303" stroke-width="2.8"/>
</svg>
