<svg width="63" height="32" viewBox="0 0 63 32" fill="none" xmlns="http://www.w3.org/2000/svg">
<path fill-rule="evenodd" clip-rule="evenodd" d="M55.8207 25.0319C55.8207 22.3742 53.6638 20.2197 51.0041 20.2197C48.3439 20.2197 46.1875 22.3742 46.1875 25.0319C46.1875 27.6897 48.3439 29.8441 51.0041 29.8441C53.6638 29.8441 55.8207 27.6897 55.8207 25.0319Z" stroke="#030303" stroke-width="2.8"/>
<path fill-rule="evenodd" clip-rule="evenodd" d="M16.547 25.0319C16.547 22.3742 14.3906 20.2197 11.7304 20.2197C9.07024 20.2197 6.91382 22.3742 6.91382 25.0319C6.91382 27.6897 9.07024 29.8441 11.7304 29.8441C14.3906 29.8441 16.547 27.6897 16.547 25.0319Z" stroke="#030303" stroke-width="2.8"/>
<path d="M16.5471 25.032H46.1873" stroke="#030303" stroke-width="2.8"/>
<path d="M55.8206 25.0319H62.7342C62.7342 18.5592 57.4823 13.312 51.004 13.312C44.5253 13.312 39.2734 18.5592 39.2734 25.0319C22.3142 25.0319 22.9899 13.312 11.7302 13.312C5.25194 13.312 0 18.5592 0 25.0319H6.9136" stroke="#030303" stroke-width="2.8"/>
<path d="M10.3848 13.3904V9.1184H31.3673V0H46.311C48.9027 0 51.0042 2.09958 51.0042 4.68896V13.3122" stroke="#030303" stroke-width="2.8"/>
<path d="M31.3672 9.11844H51.0041" stroke="#030303" stroke-width="2.8"/>
</svg>
