<svg width="77" height="37" viewBox="0 0 77 37" fill="none" xmlns="http://www.w3.org/2000/svg">
<path fill-rule="evenodd" clip-rule="evenodd" d="M28.7836 29.8068C28.7836 27.1495 26.6267 24.9946 23.967 24.9946C21.3068 24.9946 19.1504 27.1495 19.1504 29.8068C19.1504 32.4646 21.3068 34.619 23.967 34.619C26.6267 34.619 28.7836 32.4646 28.7836 29.8068Z" stroke="#030303" stroke-width="2.8"/>
<path fill-rule="evenodd" clip-rule="evenodd" d="M65.7287 29.8068C65.7287 27.1495 63.5718 24.9946 60.9121 24.9946C58.2519 24.9946 56.0955 27.1495 56.0955 29.8068C56.0955 32.4646 58.2519 34.619 60.9121 34.619C63.5718 34.619 65.7287 32.4646 65.7287 29.8068Z" stroke="#030303" stroke-width="2.8"/>
<path d="M28.6807 30.7981H56.0951" stroke="#030303" stroke-width="2.8"/>
<path d="M72.7345 19.3025H26.2661" stroke="#030303" stroke-width="2.8"/>
<path d="M65.7285 30.7981H72.3666C74.4082 30.7981 76.0636 29.1442 76.0636 27.1045V22.8981C76.0636 21.0005 74.6243 19.4119 72.7344 19.223L68.2717 18.9104C66.6267 18.7948 65.0712 18.1179 63.8665 16.9925L59.9183 13.3021C58.6416 12.1084 56.9736 11.4211 55.226 11.368L43.8249 11.0199C41.0612 10.9358 38.3492 11.78 36.1226 13.4172L32.2932 16.2337C30.5667 17.503 28.3721 18.9027 26.2661 19.3021L22.9283 16.5288C22.3737 18.2236 19.4502 18.574 16.844 18.3864C17.8142 21.6163 16.7594 24.4652 13.3149 25.824C13.3149 25.824 15.4074 29.1933 14.7668 30.7981H19.1499" stroke="#030303" stroke-width="2.8"/>
<path d="M28.6807 30.7981H56.0951" stroke="#030303" stroke-width="2.8"/>
<path d="M5.23933 24.8216C5.23933 17.3917 0 18.405 0 12.4108C0 6.41657 5.23933 6.75435 5.23933 0" stroke="#030303" stroke-width="2.8"/>
<path d="M11.2679 18.0781C9.9578 16.6536 8.64819 15.4077 8.64819 12.4108C8.64819 6.41661 13.8875 6.75439 13.8875 0.000488281" stroke="#030303" stroke-width="2.8"/>
</svg>
