<svg width="58" height="41" viewBox="0 0 58 41" fill="none" xmlns="http://www.w3.org/2000/svg">
<path fill-rule="evenodd" clip-rule="evenodd" d="M46.098 13.2686C44.2171 11.389 41.1671 11.389 39.2862 13.2686C37.4053 15.1478 37.4053 18.1946 39.2862 20.0742C41.1671 21.9534 44.2171 21.9534 46.098 20.0742C47.9789 18.1946 47.9789 15.1478 46.098 13.2686Z" stroke="#030303" stroke-width="2.8"/>
<path d="M34.2207 26.5361L39.9877 20.7744" stroke="#030303" stroke-width="2.8"/>
<path d="M46.7994 13.9692L51.4931 9.2793C52.9369 7.8373 52.9369 5.49845 51.4931 4.05645L48.516 1.08205C47.1731 -0.260093 45.0311 -0.366691 43.5612 0.835122L40.1843 3.76634C38.9395 4.84761 37.3603 5.46741 35.7121 5.52228L30.308 5.7022C28.5608 5.76022 26.8946 6.45288 25.6215 7.6493L17.3132 15.4584C15.2995 17.3511 13.9795 19.8635 13.564 22.5946L12.6528 29.8896" stroke="#030303" stroke-width="2.8"/>
<path d="M43.6173 0.890625L14.2437 30.2374" stroke="#030303" stroke-width="2.8"/>
<path d="M0 25.0737C7.18686 25.0737 7.18686 30.3681 14.3737 30.3681C21.5606 30.3681 21.5606 25.0737 28.7474 25.0737C35.9343 25.0737 35.9343 30.3681 43.1212 30.3681C50.308 30.3681 50.308 25.0737 57.4949 25.0737" stroke="#030303" stroke-width="2.8"/>
<path d="M0 33.958C7.18686 33.958 7.18686 39.2519 14.3737 39.2519C21.5606 39.2519 21.5606 33.958 28.7474 33.958C35.9343 33.958 35.9343 39.2519 43.1212 39.2519C50.308 39.2519 50.308 33.958 57.4949 33.958" stroke="#030303" stroke-width="2.8"/>
</svg>
